# xmcd CD database file
#
# Track frame offsets:
#	150
#	17712
#	35267
#	50245
#	68197
#	86690
#	104452
#	124335
#	148150
#	168265
#	184387
#	195185
#	216110
#	232922
#	248270
#
# Disc length: 3547 seconds
#
# Revision: 2
# Processed by: cddbd v1.5.2PL0 Copyright (c) Steve Scherf et al.
# Submitted via: jetAudio 7
#
DISCID=ce0dd90f
DTITLE=Various Artist - 音蔵 BEST Selection Vol.3
DYEAR=1996
DGENRE=blues
TTITLE0=HERO
TTITLE1=愛を止めないで
TTITLE2=青春の影
TTITLE3=遠くで汽笛を聴きながら
TTITLE4=LAST SHOW
TTITLE5=まるで映画のように
TTITLE6=ゴロワースを吸ったことがあるかい
TTITLE7=カリフォルニアにあこがれて
TTITLE8=WAKE UP
TTITLE9=風
TTITLE10=サイクリング・ブギ
TTITLE11=最後の春休み
TTITLE12=ビートルズが教えてくれた
TTITLE13=帰ってきたヨッパライ
TTITLE14=マイ・マン
EXTD=
EXTT0=
EXTT1=
EXTT2=
EXTT3=
EXTT4=
EXTT5=
EXTT6=
EXTT7=
EXTT8=
EXTT9=
EXTT10=
EXTT11=
EXTT12=
EXTT13=
EXTT14=
PLAYORDER=
